<svg width="48" height="24" viewBox="0 0 48 24" fill="none" xmlns="http://www.w3.org/2000/svg">
<rect x="-8" width="32" height="24" rx="0.5" fill="white"/>
<path d="M28 0.242424C28 0.108537 28.1085 0 28.2424 0V0C32.5268 0 36 3.47318 36 7.75758V16.2424C36 20.5268 32.5268 24 28.2424 24V24C28.1085 24 28 23.8915 28 23.7576V0.242424Z" fill="white"/>
<path d="M48 14.5C48 14.7761 47.7761 15 47.5 15H45V14C45 13.4477 44.5523 13 44 13C43.4477 13 43 13.4477 43 14V15H40.5C40.2239 15 40 14.7761 40 14.5V9.5C40 9.22386 40.2239 9 40.5 9H47.5C47.7761 9 48 9.22386 48 9.5V14.5Z" fill="white"/>
</svg>
