<svg width="49" height="24" viewBox="0 0 49 24" fill="none" xmlns="http://www.w3.org/2000/svg">
<path fill-rule="evenodd" clip-rule="evenodd" d="M-39.7518 16.3659C-52.0815 13.3592 -52.0833 10.6378 -39.7538 7.63114C-26.9722 4.51457 -6.91945 4.22723 7.1871 6.67021L7.1871 17.3291C-6.92153 19.77 -26.9683 19.4848 -39.7518 16.3659ZM11.4336 17.7236C12.9318 18.3221 14.5257 18.6864 16.1766 18.8513V5.14809C14.5257 5.31297 12.9298 5.67936 11.4336 6.27578V17.7236ZM20.4189 19.3115V4.688C21.3797 3.30379 22.6092 2.1598 24.0179 1.34551C25.5039 0.48649 27.2016 0.00198019 29.0031 0C34.1247 0 42.7701 7.48924 48.0218 12C42.768 16.5089 34.1246 24.0001 29.0031 24C25.4916 24.002 22.3935 22.1537 20.4191 19.3122L20.4189 19.3115Z" fill="white"/>
</svg>
