<svg width="29" height="32" viewBox="0 0 29 32" fill="none" xmlns="http://www.w3.org/2000/svg">
<path d="M21.4161 1.94499C22.3305 0.179548 24.503 -0.510335 26.2684 0.404107C28.0367 1.31999 28.7254 3.4975 27.8056 5.2637L24.1082 12.3627C23.9603 12.6468 23.7769 12.9061 23.5649 13.1361C24.5753 14.6321 24.8885 16.5557 24.2482 18.3767C24.1023 18.7917 23.9483 19.2242 23.7883 19.6664C23.7201 19.8547 23.5016 19.9393 23.3241 19.8466L11.3939 13.6121C11.2006 13.5111 11.1559 13.2544 11.302 13.0925C11.5989 12.7636 11.888 12.4334 12.1656 12.1086C13.4705 10.5814 15.4043 9.71752 17.3575 9.78153C17.3796 9.73603 17.4029 9.69072 17.4274 9.64559L21.4161 1.94499Z" fill="white"/>
<path d="M9.64459 15.1276C9.5192 15.0621 9.36619 15.0837 9.26255 15.1799C8.52819 15.8623 7.79554 16.4579 7.11199 16.8819C4.80388 18.3137 2.89574 18.8298 1.71077 19.0129C1.01774 19.1201 0.455237 19.5663 0.181232 20.1449C-0.10499 20.7492 -0.0834156 21.5412 0.472795 22.1541C1.08565 22.8295 1.99351 23.7232 3.30292 24.7986C3.37969 24.8616 3.48089 24.8864 3.57829 24.8669C4.49422 24.6827 5.44783 24.5089 6.28004 24.0739C6.52224 23.9473 6.88486 23.7217 7.33962 23.3317C7.79243 22.9433 8.48165 22.985 8.87901 23.4248C9.27633 23.8645 9.23136 24.5358 8.77855 24.9242C8.20354 25.4173 7.70357 25.7379 7.30711 25.9452C6.98275 26.1147 6.64332 26.2555 6.29677 26.3756C6.03349 26.4669 5.97187 26.8217 6.20049 26.981C6.86006 27.4406 7.57938 27.9205 8.3633 28.4191C8.76423 28.6741 9.15956 28.9138 9.54711 29.1389C9.65771 29.2032 9.79565 29.1973 9.89971 29.1229C10.4592 28.7227 10.9409 28.3211 11.3337 27.9526C12.2223 27.1191 12.989 26.2006 13.609 25.1443C13.9107 24.6302 14.5744 24.4493 15.0912 24.7403C15.6081 25.0312 15.7825 25.6838 15.4807 26.1979C14.755 27.4343 13.857 28.5169 12.8158 29.4937C12.6356 29.6627 12.4398 29.8375 12.2289 30.0155C12.0424 30.173 12.0757 30.473 12.2969 30.5763C13.6154 31.1919 14.7249 31.6075 15.4884 31.8654C16.5959 32.2395 17.7795 31.8117 18.4149 30.8599C19.2183 29.6567 20.6293 27.3876 21.8408 24.6265C22.1551 23.91 22.4749 23.129 22.7884 22.3285C22.8499 22.1714 22.7829 21.9934 22.6334 21.9153L9.64459 15.1276Z" fill="white"/>
</svg>
