<svg width="49" height="24" viewBox="0 0 49 24" fill="none" xmlns="http://www.w3.org/2000/svg">
<path d="M-24.3942 19.6138L-14.812 20.6284L-14.812 17.5893L-14.7941 6.35285L-14.7941 3.29941L-24.3584 4.29611C-25.2816 4.38593 -25.9641 5.03613 -25.9641 5.79409L-26 18.1052V18.1195C-26 18.8775 -25.2977 19.5115 -24.3942 19.6175V19.6138ZM-11.1008 5.95753L-11.1008 2.91844L16.8885 0V3.0391L16.8706 20.9466V24L-11.1187 21.0199L-11.1187 17.9809L-11.1008 5.95753ZM20.5831 4.33715V0.601161C20.7484 0.6766 20.8957 0.752041 21.0448 0.84364L26.3075 4.06593C26.6218 4.26171 27.0278 4.36949 27.4158 4.36949L29.9447 4.35515C30.4441 4.35515 30.9057 4.52221 31.2559 4.80779C31.6062 5.07901 31.7912 5.47237 31.7912 5.86753V8.90663L31.7732 15.0458V18.0849C31.7732 18.9183 30.9434 19.5973 29.9268 19.5973H27.3978C27.0099 19.5973 26.6039 19.7014 26.2896 19.9008L21.0089 23.1375C20.8616 23.2273 20.7323 23.3027 20.5652 23.3656V19.6296L20.585 4.33939L20.5831 4.33715ZM35.482 8.90494V5.8802H39.5629C41.0394 5.8802 42.4421 6.34897 43.4767 7.21112L47.9814 10.886C48.7017 11.477 48.7017 12.4433 47.9814 13.0342L43.4569 16.7396C42.4223 17.5874 41.0375 18.0562 39.5611 18.0562L35.4622 18.0706V15.0459L35.4802 8.90666L35.482 8.90494Z" fill="white"/>
</svg>
