<svg width="22" height="32" viewBox="0 0 22 32" fill="none" xmlns="http://www.w3.org/2000/svg">
<path d="M11.8091 0.360154C11.6028 0.130724 11.3086 0 10.9998 0C10.691 0 10.3969 0.13072 10.1905 0.360154C9.77523 0.851025 0 12.4931 0 20.9767C0 24.9143 2.09641 28.5544 5.50009 30.5233C8.90376 32.4923 13.0965 32.4922 16.4999 30.5233C19.9033 28.5545 22 24.9143 22 20.9767C22 12.4931 12.2242 0.850854 11.8091 0.360154ZM10.9998 2.75048C12.8846 5.14081 17.4953 11.3939 19.2099 17.0603H2.78974C4.50413 11.3939 9.11479 5.14081 10.9998 2.75048Z" fill="white"/>
</svg>
