<svg width="49" height="24" viewBox="0 0 49 24" fill="none" xmlns="http://www.w3.org/2000/svg">
<path fill-rule="evenodd" clip-rule="evenodd" d="M-89.9381 0.000597585L-89.9381 23.9905L-103.688 23.9905L-103.692 23.9944C-106.94 24.0061 -110.067 22.7398 -112.396 20.465C-114.699 18.2488 -115.996 15.1924 -116 11.9992C-115.996 8.80581 -114.699 5.74943 -112.396 3.53335C-110.067 1.26639 -106.944 -0.00386343 -103.688 8.82724e-06L-89.9381 0.000597585ZM25.5548 0.004602L-86.4 0.00460152L-86.4 10.2293L25.5588 10.2333V0.00860212L25.5548 0.004602ZM29.0882 22.7524L29.0922 1.25993L48.2085 12.051L29.1002 22.756L29.0882 22.7524ZM-86.4047 13.7752L-86.3929 23.996L25.5579 24V13.7753L-86.4047 13.7752Z" fill="white"/>
</svg>
