<svg width="32" height="32" viewBox="0 0 32 32" fill="none" xmlns="http://www.w3.org/2000/svg">
<path d="M1.27086 9.79179C2.11777 7.81947 3.25669 6.11795 4.68712 4.68749C6.1178 3.25702 7.81902 2.11833 9.79155 1.2709C11.7638 0.423462 13.833 0 15.9996 0C18.0412 0 20.0168 0.385105 21.9267 1.15608C23.8363 1.92706 25.5342 3.01384 27.0204 4.41669L29.7291 1.72888C30.1459 1.29826 30.6248 1.20109 31.1666 1.43711C31.7223 1.67339 32 2.0833 32 2.66658V12.0001C32 12.3612 31.8681 12.6737 31.6042 12.9376C31.34 13.2015 31.0275 13.3334 30.6665 13.3334H21.3332C20.7496 13.3334 20.34 13.0557 20.104 12.5C19.868 11.9584 19.9651 11.4792 20.3957 11.0624L23.2499 8.18744C22.2775 7.27071 21.1664 6.56596 19.9165 6.07269C18.6664 5.57967 17.361 5.33291 15.9999 5.33291C14.5554 5.33291 13.1769 5.61445 11.8643 6.17676C10.5518 6.73933 9.41668 7.49982 8.45829 8.45824C7.4999 9.4164 6.73943 10.5518 6.17687 11.8643C5.61457 13.1769 5.33329 14.5552 5.33329 16C5.33329 17.4448 5.61457 18.8228 6.17687 20.1354C6.73943 21.448 7.4999 22.5833 8.45829 23.5418C9.41668 24.5002 10.552 25.2607 11.8643 25.823C13.1769 26.3856 14.5556 26.6668 15.9999 26.6668C17.6528 26.6668 19.2151 26.3058 20.6875 25.5836C22.1596 24.8615 23.4026 23.8407 24.4165 22.521C24.5137 22.3821 24.6735 22.2985 24.8957 22.2706C25.1041 22.2706 25.2777 22.333 25.4166 22.458L28.2708 25.3333C28.3817 25.4448 28.4408 25.5867 28.4477 25.7603C28.4546 25.9342 28.4094 26.0902 28.3122 26.2291C26.7981 28.0625 24.965 29.4828 22.8122 30.4895C20.6594 31.4962 18.3884 32 15.9996 32C13.833 32 11.7636 31.5763 9.79129 30.7291C7.81902 29.8819 6.11806 28.7427 4.68712 27.3125C3.25669 25.8815 2.11803 24.1805 1.27061 22.2082C0.423452 20.2359 -1.61235e-06 18.1662 -1.61235e-06 15.9997C-1.61235e-06 13.8328 0.423706 11.7641 1.27086 9.79179Z" fill="white"/>
</svg>
