<svg width="32" height="32" viewBox="0 0 32 32" fill="none" xmlns="http://www.w3.org/2000/svg">
<path d="M27.5905 1.80959C26.9949 0.687186 25.8382 0 24.5669 0H22.4939V6.471C22.4939 8.36076 20.9592 9.90693 19.0579 9.90693H12.942C11.0408 9.90693 9.50607 8.36076 9.50607 6.471V0H3.43593C1.53471 0 0 1.53471 0 3.43593V28.564C0 30.4652 1.53471 31.9999 3.43593 31.9999H7.06656V21.5318C7.06656 19.6306 8.60127 18.0959 10.5025 18.0959H21.4975C23.3987 18.0959 24.9334 19.6306 24.9334 21.5318V31.9999H28.564C30.4652 31.9999 31.9999 30.4652 31.9999 28.564V10.3078C31.9999 10.1131 31.9541 9.92983 31.8625 9.75804L27.5905 1.80959Z" fill="white"/>
<path d="M21.4975 20.3866H10.5025C9.86111 20.3866 9.35718 20.902 9.35718 21.5319V32H22.6428V21.5319C22.6428 20.902 22.1388 20.3866 21.4975 20.3866Z" fill="white"/>
<path d="M19.0579 7.61631C19.6993 7.61631 20.2032 7.10092 20.2032 6.471V0H11.7966V6.471C11.7966 7.10092 12.3006 7.61631 12.9419 7.61631H19.0579Z" fill="white"/>
</svg>
