<svg width="32" height="32" viewBox="0 0 32 32" fill="none" xmlns="http://www.w3.org/2000/svg">
<path d="M8.75474 11.2857C9.36057 11.8948 9.96639 12.5039 10.5722 13.113C11.2493 13.7937 11.962 14.4386 12.5679 15.1551C13.9577 16.7316 15.4544 18.1647 17.165 19.4545C18.6974 20.601 20.1228 21.8549 21.5483 23.1089C22.2967 23.7538 23.0094 24.4345 23.7934 25.0078C25.5753 26.3334 26.8582 28.089 28.3549 29.6654C28.64 29.952 28.6044 30.4536 28.2836 30.8477C27.7847 31.4926 26.9295 31.7434 26.1811 31.3851C24.2923 30.4536 22.4036 29.5937 20.5861 28.5906C18.2697 27.3008 16.1315 25.796 14.0646 24.1121C11.8195 22.1774 9.50311 20.3143 7.22237 18.4513C7.04418 18.308 6.83036 18.2005 6.65218 18.093C6.61654 18.1289 6.58091 18.1647 6.50963 18.2005C6.79473 18.6304 7.04418 19.0604 7.36491 19.4545C9.46748 22.2132 11.677 24.8645 14.1002 27.3366C14.813 28.0531 15.3832 28.8772 15.989 29.6654C16.381 30.167 16.3097 30.5611 15.7752 30.8835C15.3119 31.1702 14.7773 31.3851 14.2428 31.6359C14.1715 31.6717 14.0646 31.6717 13.9933 31.6359C13.3162 31.3135 12.6035 31.0627 11.962 30.6686C9.64566 29.3429 7.36491 27.9815 5.08417 26.6559C4.87035 26.5484 4.65653 26.4767 4.30016 26.2976C4.40707 26.62 4.40707 26.7992 4.47834 26.9425C4.76344 27.5157 5.04853 28.0531 5.36926 28.5906C5.68999 29.1638 5.7969 29.7729 5.68999 30.4178C5.65435 30.5969 5.61872 30.8119 5.51181 30.9552C5.04853 31.6001 3.62306 32.3166 2.76778 31.8509C2.09069 31.4926 1.34231 31.206 0.593944 30.8835C0.593944 29.8445 1.05722 29.3788 2.44705 29.1996C2.30451 28.8414 2.1976 28.4831 2.01941 28.1606C1.44922 26.8708 0.700855 25.5452 0.0950312 24.2196C-0.296972 23.3955 0.593945 21.8191 1.48486 21.64C1.73432 21.6041 2.01941 21.7116 2.23323 21.8191C2.94597 22.2132 3.62306 22.679 4.30016 23.1089C4.47834 23.2164 4.65653 23.3597 4.79907 23.503C5.72563 24.4704 6.61654 24.9361 8.07765 25.0794C7.86383 24.7928 7.72128 24.542 7.5431 24.3271C5.83254 21.9983 4.12198 19.6694 2.41142 17.3406C1.87687 16.6241 1.59177 15.8 1.30668 14.976C1.12849 14.4028 0.950311 13.8295 0.772128 13.2204C1.12849 12.8622 1.41359 12.4681 1.73432 12.0381C1.98377 11.7157 2.30451 11.644 2.55396 11.9665C3.80125 13.3996 5.54744 14.2236 6.93727 15.4776C7.61437 16.0867 8.43401 16.5883 9.14675 17.1257C9.93075 17.6989 10.7148 18.2722 11.4988 18.8454C11.6413 18.9529 11.7839 19.0245 11.9977 19.0245C11.8908 18.8454 11.8551 18.6304 11.7126 18.4871C10.8217 17.484 9.89512 16.4808 8.96856 15.4776C7.07982 13.4354 5.1198 11.4649 3.2667 9.38687C2.48269 8.52701 1.80559 7.55966 1.12849 6.59231C0.629581 5.91158 0.665218 5.62496 1.12849 4.98006C1.66304 4.2635 2.23323 4.12019 2.94597 4.65761C3.83688 5.33834 4.65653 6.09072 5.54744 6.73562C6.22454 7.27304 6.93727 7.77463 7.68564 8.20456C9.3962 9.17191 11.178 10.1034 12.9242 11.035C13.2093 11.1783 13.4944 11.2857 13.7795 11.4291C13.8152 11.3932 13.8508 11.3216 13.8864 11.2857C13.4944 10.82 13.1737 10.2826 12.7461 9.85264C11.2849 8.3837 9.75257 6.98641 8.25583 5.5533C7.36491 4.69344 6.50963 3.76192 5.65435 2.86622C5.1198 2.25715 5.1198 1.46894 5.61872 0.752383C5.93945 0.286622 6.22454 0.179139 6.72345 0.465761C7.5431 0.895694 8.3271 1.39728 9.11111 1.86304C9.61002 2.14967 10.0733 2.50794 10.5366 2.79457C10.9999 3.08119 11.4631 3.33198 12.0333 3.40364C12.5679 3.47529 13.0311 3.76192 13.5657 3.94105C14.421 4.29933 15.2763 4.65761 16.1315 4.98006C16.2028 5.01589 16.2741 4.98006 16.4523 4.98006C16.3454 4.80092 16.2741 4.65761 16.2028 4.55013C15.7039 3.8694 15.1693 3.2245 14.7061 2.54377C14.3853 2.07801 14.421 1.64808 14.7773 1.18232C15.0268 0.859866 15.4901 0.752383 15.9534 0.931522C16.0603 0.96735 16.1315 1.03901 16.2384 1.07483C17.3432 1.57642 18.4479 2.11384 19.5527 2.61543C20.3723 3.00953 21.1563 3.43947 21.9403 3.83357C22.2967 4.01271 22.6887 4.15602 23.1876 3.97688C22.9381 3.58278 22.6887 3.29615 22.5105 2.93788C22.3323 2.5796 22.0829 2.14967 22.1541 1.82722C22.2967 1.25397 22.653 0.680728 22.9381 0.143311C23.0094 0.0358278 23.2232 0 23.3658 0C23.7221 0.0358278 24.0429 0.107483 24.3992 0.214967C25.7534 0.6449 27.072 1.14649 28.4975 1.2898C29.9942 1.43311 29.9942 1.46894 31.0633 0.573244C32.0968 1.03901 32.3106 1.9347 31.5266 2.75874C31.2059 3.11702 30.8138 3.43947 30.4218 3.72609C30.2437 3.83357 29.9586 3.90523 29.7447 3.8694C28.9607 3.83357 28.1767 3.72609 27.2502 3.6186C27.4284 3.83357 27.4996 3.97688 27.6065 4.04854C28.3193 4.5143 29.032 4.94423 29.7091 5.44582C29.9942 5.62496 30.2793 5.83993 30.5288 6.09072C30.9208 6.52065 30.9208 7.02224 30.5288 7.38052C30.1368 7.7388 29.7091 8.09708 29.2458 8.3837C29.032 8.52701 28.7113 8.56284 28.4618 8.49118C27.7135 8.31204 26.9294 8.16873 26.2167 7.84628C24.8982 7.23721 23.4727 6.8431 22.0472 6.449C22.1541 6.55648 22.261 6.69979 22.4036 6.80728C24.6131 8.59866 26.7156 10.2467 28.8538 11.8232C29.6022 12.3606 30.3862 12.8263 31.2059 13.2921C32.0255 13.7937 32.0255 14.8327 31.2415 15.3343C30.4218 15.8359 29.6022 15.8717 28.7469 15.4059C27.5709 14.7969 26.3236 14.3311 25.1476 13.6862C23.7578 12.9338 22.4036 12.1098 21.1207 11.2499C19.9803 10.4975 18.8756 9.60184 17.7708 8.7778C17.6283 8.67032 17.4857 8.52701 17.3075 8.45535C16.0959 7.88211 14.8486 7.30886 13.5657 6.80728C13.6726 6.95059 13.7439 7.0939 13.8508 7.20138C15.0268 8.27621 16.2384 9.35105 17.4145 10.4259C19.9447 12.7547 22.8312 14.6177 25.6109 16.6241C26.5018 17.269 27.3215 18.0214 28.1411 18.8096C28.7469 19.3828 29.3884 19.8128 30.1011 20.2427C30.5288 20.4935 30.9564 20.7801 31.384 21.1026C31.8829 21.4967 31.9186 22.0341 31.4553 22.4998C30.8851 23.0731 30.4575 23.0731 29.7091 22.7865C27.1433 21.8908 24.7912 20.5293 22.3323 19.347C20.3723 18.4155 18.5548 17.2332 16.773 15.9434C14.5279 14.3311 12.2471 12.7189 9.78821 11.4291C9.53875 11.2857 9.28929 11.1783 9.0042 11.035C8.89729 11.1424 8.82602 11.2141 8.75474 11.2857Z" fill="white"/>
</svg>
