<svg width="32" height="32" viewBox="0 0 32 32" fill="none" xmlns="http://www.w3.org/2000/svg">
<path d="M30.7291 9.79179C29.8822 7.81947 28.7433 6.11795 27.3129 4.68749C25.8822 3.25702 24.181 2.11833 22.2084 1.2709C20.2362 0.423462 18.167 0 16.0004 0C13.9588 0 11.9832 0.385105 10.0733 1.15608C8.16372 1.92706 6.46582 3.01384 4.97965 4.41669L2.27094 1.72888C1.85414 1.29826 1.3752 1.20109 0.833351 1.43711C0.277699 1.67339 0 2.0833 0 2.66658V12.0001C0 12.3612 0.131945 12.6737 0.395835 12.9376C0.659981 13.2015 0.972456 13.3334 1.33351 13.3334H10.6668C11.2504 13.3334 11.66 13.0557 11.896 12.5C12.132 11.9584 12.0349 11.4792 11.6043 11.0624L8.75006 8.18744C9.72251 7.27071 10.8336 6.56596 12.0835 6.07269C13.3336 5.57967 14.639 5.33291 16.0001 5.33291C17.4446 5.33291 18.8231 5.61445 20.1357 6.17676C21.4482 6.73933 22.5833 7.49982 23.5417 8.45824C24.5001 9.4164 25.2606 10.5518 25.8231 11.8643C26.3854 13.1769 26.6667 14.5552 26.6667 16C26.6667 17.4448 26.3854 18.8228 25.8231 20.1354C25.2606 21.448 24.5001 22.5833 23.5417 23.5418C22.5833 24.5002 21.448 25.2607 20.1357 25.823C18.8231 26.3856 17.4444 26.6668 16.0001 26.6668C14.3472 26.6668 12.7849 26.3058 11.3125 25.5836C9.84039 24.8615 8.5974 23.8407 7.58352 22.521C7.48635 22.3821 7.32653 22.2985 7.10432 22.2706C6.89592 22.2706 6.72229 22.333 6.58344 22.458L3.72924 25.3333C3.61826 25.4448 3.55919 25.5867 3.55229 25.7603C3.54538 25.9342 3.59064 26.0902 3.68781 26.2291C5.20186 28.0625 7.03502 29.4828 9.18783 30.4895C11.3406 31.4962 13.6116 32 16.0004 32C18.167 32 20.2364 31.5763 22.2087 30.7291C24.181 29.8819 25.8819 28.7427 27.3129 27.3125C28.7433 25.8815 29.882 24.1805 30.7294 22.2082C31.5765 20.2359 32 18.1662 32 15.9997C32 13.8328 31.5763 11.7641 30.7291 9.79179Z" fill="white"/>
</svg>
